<svg xmlns="http://www.w3.org/2000/svg" id="b1773bcb-a373-48c7-9f1d-a048b76ce942" data-name="Layer 1" width="18.1738" height="30.1341" viewBox="0 0 18.1738 30.1341"><title>arrow</title><path d="M17.9182,8.4734,9.6942.25a.8587.8587,0,0,0-1.2113,0L.2616,8.4717a.8482.8482,0,0,0-.261.601L0,9.0874a.8526.8526,0,0,0,.2409.5956.8642.8642,0,0,0,1.23.0027L8.232,2.9239V29.2682a.8566.8566,0,1,0,1.7131,0V2.9239L16.7042,9.683a.8575.8575,0,0,0,1.2113.0214.8462.8462,0,0,0,.2583-.61A.8951.8951,0,0,0,17.9182,8.4734Z" transform="translate(0 0)"></path></svg>